<mxfile host="app.diagrams.net" modified="2024-05-03T16:27:30.559Z" agent="Mozilla/5.0 (Macintosh; Intel Mac OS X 10_15_7) AppleWebKit/537.36 (KHTML, like Gecko) Chrome/124.0.0.0 Safari/537.36" etag="TX0pRFRHLdVkG715TBxe" version="24.3.1" type="device">
  <diagram name="PÃ¡gina-1" id="KH6A31eGFsaUxYtv-GC3">
    <mxGraphModel dx="1272" dy="861" grid="1" gridSize="10" guides="1" tooltips="1" connect="1" arrows="1" fold="1" page="1" pageScale="1" pageWidth="1169" pageHeight="1654" background="#000000" math="0" shadow="0">
      <root>
        <mxCell id="0" />
        <mxCell id="1" parent="0" />
        <mxCell id="cTxEqYbv3ek-uvYbrTPT-3" style="edgeStyle=orthogonalEdgeStyle;rounded=0;hachureGap=4;orthogonalLoop=1;jettySize=auto;html=1;entryX=0.5;entryY=0;entryDx=0;entryDy=0;fontFamily=Architects Daughter;fontSource=https%3A%2F%2Ffonts.googleapis.com%2Fcss%3Ffamily%3DArchitects%2BDaughter;strokeColor=#FFFFFF;" edge="1" parent="1" source="cTxEqYbv3ek-uvYbrTPT-1" target="cTxEqYbv3ek-uvYbrTPT-5">
          <mxGeometry relative="1" as="geometry">
            <mxPoint x="585" y="180" as="targetPoint" />
          </mxGeometry>
        </mxCell>
        <mxCell id="cTxEqYbv3ek-uvYbrTPT-6" value="True" style="edgeLabel;html=1;align=center;verticalAlign=middle;resizable=0;points=[];hachureGap=4;fontFamily=Helvetica;" vertex="1" connectable="0" parent="cTxEqYbv3ek-uvYbrTPT-3">
          <mxGeometry x="-0.2258" relative="1" as="geometry">
            <mxPoint as="offset" />
          </mxGeometry>
        </mxCell>
        <mxCell id="cTxEqYbv3ek-uvYbrTPT-1" value="&lt;font color=&quot;#ffffff&quot;&gt;Initialize: graph, source&lt;br&gt;&lt;/font&gt;" style="rounded=0;whiteSpace=wrap;html=1;fillColor=#000000;strokeColor=#FFFFFF;" vertex="1" parent="1">
          <mxGeometry x="525" y="70" width="120" height="60" as="geometry" />
        </mxCell>
        <mxCell id="cTxEqYbv3ek-uvYbrTPT-9" style="edgeStyle=orthogonalEdgeStyle;rounded=0;hachureGap=4;orthogonalLoop=1;jettySize=auto;html=1;exitX=0.5;exitY=1;exitDx=0;exitDy=0;entryX=0.5;entryY=0;entryDx=0;entryDy=0;fontFamily=Architects Daughter;fontSource=https%3A%2F%2Ffonts.googleapis.com%2Fcss%3Ffamily%3DArchitects%2BDaughter;strokeColor=#FFFFFF;" edge="1" parent="1" source="cTxEqYbv3ek-uvYbrTPT-5" target="cTxEqYbv3ek-uvYbrTPT-8">
          <mxGeometry relative="1" as="geometry" />
        </mxCell>
        <mxCell id="cTxEqYbv3ek-uvYbrTPT-10" value="&lt;font face=&quot;Helvetica&quot;&gt;True&lt;/font&gt;" style="edgeLabel;html=1;align=center;verticalAlign=middle;resizable=0;points=[];hachureGap=4;fontFamily=Architects Daughter;fontSource=https%3A%2F%2Ffonts.googleapis.com%2Fcss%3Ffamily%3DArchitects%2BDaughter;" vertex="1" connectable="0" parent="cTxEqYbv3ek-uvYbrTPT-9">
          <mxGeometry x="-0.1631" y="-4" relative="1" as="geometry">
            <mxPoint y="-1" as="offset" />
          </mxGeometry>
        </mxCell>
        <mxCell id="cTxEqYbv3ek-uvYbrTPT-5" value="&lt;font color=&quot;#ffffff&quot;&gt;num vertices = graph.adjacencyList.size();&lt;br&gt;&lt;/font&gt;&lt;div&gt;&lt;font color=&quot;#ffffff&quot;&gt;visited = new boolen[numVertices];&lt;/font&gt;&lt;/div&gt;&lt;div&gt;&lt;font color=&quot;#ffffff&quot;&gt;priorityQueue = new PriorityQueue&amp;lt;&amp;gt;(num Vertices, Comparator.comparingInt(v-&amp;gt;v.distance)&lt;/font&gt;&lt;/div&gt;&lt;div&gt;&lt;font color=&quot;#ffffff&quot;&gt;i = 0;&lt;/font&gt;&lt;/div&gt;" style="rounded=0;whiteSpace=wrap;html=1;fillColor=#000000;strokeColor=#FFFFFF;" vertex="1" parent="1">
          <mxGeometry x="423" y="230" width="323" height="80" as="geometry" />
        </mxCell>
        <mxCell id="cTxEqYbv3ek-uvYbrTPT-13" style="edgeStyle=orthogonalEdgeStyle;rounded=0;hachureGap=4;orthogonalLoop=1;jettySize=auto;html=1;exitX=0;exitY=0.5;exitDx=0;exitDy=0;entryX=1;entryY=0.5;entryDx=0;entryDy=0;fontFamily=Helvetica;flowAnimation=0;fontColor=#FFFFFF;strokeColor=#FFFFFF;" edge="1" parent="1" source="cTxEqYbv3ek-uvYbrTPT-8" target="cTxEqYbv3ek-uvYbrTPT-12">
          <mxGeometry relative="1" as="geometry" />
        </mxCell>
        <mxCell id="cTxEqYbv3ek-uvYbrTPT-14" value="i&lt;font face=&quot;Helvetica&quot;&gt;i &amp;lt; numVertices&lt;/font&gt;" style="edgeLabel;html=1;align=center;verticalAlign=middle;resizable=0;points=[];hachureGap=4;fontFamily=Architects Daughter;fontSource=https%3A%2F%2Ffonts.googleapis.com%2Fcss%3Ffamily%3DArchitects%2BDaughter;" vertex="1" connectable="0" parent="cTxEqYbv3ek-uvYbrTPT-13">
          <mxGeometry x="0.1174" y="-6" relative="1" as="geometry">
            <mxPoint x="-1" as="offset" />
          </mxGeometry>
        </mxCell>
        <mxCell id="cTxEqYbv3ek-uvYbrTPT-23" style="edgeStyle=orthogonalEdgeStyle;rounded=0;hachureGap=4;orthogonalLoop=1;jettySize=auto;html=1;entryX=0;entryY=0.5;entryDx=0;entryDy=0;fontFamily=Architects Daughter;fontSource=https%3A%2F%2Ffonts.googleapis.com%2Fcss%3Ffamily%3DArchitects%2BDaughter;strokeColor=#FFFFFF;" edge="1" parent="1" source="cTxEqYbv3ek-uvYbrTPT-8" target="cTxEqYbv3ek-uvYbrTPT-22">
          <mxGeometry relative="1" as="geometry" />
        </mxCell>
        <mxCell id="cTxEqYbv3ek-uvYbrTPT-24" value="&lt;font face=&quot;Helvetica&quot;&gt;&amp;nbsp;! ( i &amp;lt; numVertices)&amp;nbsp;&lt;/font&gt;" style="edgeLabel;html=1;align=center;verticalAlign=middle;resizable=0;points=[];hachureGap=4;fontFamily=Architects Daughter;fontSource=https%3A%2F%2Ffonts.googleapis.com%2Fcss%3Ffamily%3DArchitects%2BDaughter;" vertex="1" connectable="0" parent="cTxEqYbv3ek-uvYbrTPT-23">
          <mxGeometry x="-0.248" y="-2" relative="1" as="geometry">
            <mxPoint x="-1" as="offset" />
          </mxGeometry>
        </mxCell>
        <mxCell id="cTxEqYbv3ek-uvYbrTPT-8" value="&lt;font color=&quot;#ffffff&quot;&gt;NULL&lt;br&gt;&lt;/font&gt;" style="rounded=0;whiteSpace=wrap;html=1;fillColor=#000000;strokeColor=#FFFFFF;" vertex="1" parent="1">
          <mxGeometry x="525" y="370" width="120" height="60" as="geometry" />
        </mxCell>
        <mxCell id="cTxEqYbv3ek-uvYbrTPT-19" value="" style="edgeStyle=orthogonalEdgeStyle;rounded=0;hachureGap=4;orthogonalLoop=1;jettySize=auto;html=1;fontFamily=Architects Daughter;fontSource=https%3A%2F%2Ffonts.googleapis.com%2Fcss%3Ffamily%3DArchitects%2BDaughter;" edge="1" parent="1" source="cTxEqYbv3ek-uvYbrTPT-12" target="cTxEqYbv3ek-uvYbrTPT-18">
          <mxGeometry relative="1" as="geometry" />
        </mxCell>
        <mxCell id="cTxEqYbv3ek-uvYbrTPT-20" style="edgeStyle=orthogonalEdgeStyle;rounded=0;hachureGap=4;orthogonalLoop=1;jettySize=auto;html=1;exitX=0.5;exitY=1;exitDx=0;exitDy=0;entryX=0.5;entryY=0;entryDx=0;entryDy=0;fontFamily=Architects Daughter;fontSource=https%3A%2F%2Ffonts.googleapis.com%2Fcss%3Ffamily%3DArchitects%2BDaughter;strokeColor=#FFFFFF;" edge="1" parent="1" source="cTxEqYbv3ek-uvYbrTPT-12" target="cTxEqYbv3ek-uvYbrTPT-18">
          <mxGeometry relative="1" as="geometry" />
        </mxCell>
        <mxCell id="cTxEqYbv3ek-uvYbrTPT-21" value="&lt;font face=&quot;Helvetica&quot;&gt;True&lt;/font&gt;" style="edgeLabel;html=1;align=center;verticalAlign=middle;resizable=0;points=[];hachureGap=4;fontFamily=Architects Daughter;fontSource=https%3A%2F%2Ffonts.googleapis.com%2Fcss%3Ffamily%3DArchitects%2BDaughter;" vertex="1" connectable="0" parent="cTxEqYbv3ek-uvYbrTPT-20">
          <mxGeometry x="-0.2" y="3" relative="1" as="geometry">
            <mxPoint y="-1" as="offset" />
          </mxGeometry>
        </mxCell>
        <mxCell id="cTxEqYbv3ek-uvYbrTPT-12" value="&lt;font color=&quot;#ffffff&quot;&gt;vertices[i] = new Vertex(i);&lt;/font&gt;" style="rounded=0;whiteSpace=wrap;html=1;fillColor=#000000;strokeColor=#FFFFFF;" vertex="1" parent="1">
          <mxGeometry x="240" y="370" width="140" height="60" as="geometry" />
        </mxCell>
        <mxCell id="cTxEqYbv3ek-uvYbrTPT-26" style="edgeStyle=orthogonalEdgeStyle;rounded=0;hachureGap=4;orthogonalLoop=1;jettySize=auto;html=1;fontFamily=Architects Daughter;fontSource=https%3A%2F%2Ffonts.googleapis.com%2Fcss%3Ffamily%3DArchitects%2BDaughter;" edge="1" parent="1" source="cTxEqYbv3ek-uvYbrTPT-18">
          <mxGeometry relative="1" as="geometry">
            <mxPoint x="400" y="550" as="targetPoint" />
          </mxGeometry>
        </mxCell>
        <mxCell id="cTxEqYbv3ek-uvYbrTPT-28" style="edgeStyle=orthogonalEdgeStyle;rounded=0;hachureGap=4;orthogonalLoop=1;jettySize=auto;html=1;exitX=0.5;exitY=1;exitDx=0;exitDy=0;entryX=0.5;entryY=0;entryDx=0;entryDy=0;fontFamily=Architects Daughter;fontSource=https%3A%2F%2Ffonts.googleapis.com%2Fcss%3Ffamily%3DArchitects%2BDaughter;" edge="1" parent="1" source="cTxEqYbv3ek-uvYbrTPT-18" target="cTxEqYbv3ek-uvYbrTPT-27">
          <mxGeometry relative="1" as="geometry" />
        </mxCell>
        <mxCell id="cTxEqYbv3ek-uvYbrTPT-30" style="edgeStyle=orthogonalEdgeStyle;rounded=0;hachureGap=4;orthogonalLoop=1;jettySize=auto;html=1;exitX=0.5;exitY=1;exitDx=0;exitDy=0;entryX=0.5;entryY=0;entryDx=0;entryDy=0;fontFamily=Architects Daughter;fontSource=https%3A%2F%2Ffonts.googleapis.com%2Fcss%3Ffamily%3DArchitects%2BDaughter;strokeColor=#FFFFFF;" edge="1" parent="1" source="cTxEqYbv3ek-uvYbrTPT-18" target="cTxEqYbv3ek-uvYbrTPT-27">
          <mxGeometry relative="1" as="geometry" />
        </mxCell>
        <mxCell id="cTxEqYbv3ek-uvYbrTPT-31" value="&lt;font face=&quot;Helvetica&quot;&gt;i == source&lt;/font&gt;" style="edgeLabel;html=1;align=center;verticalAlign=middle;resizable=0;points=[];hachureGap=4;fontFamily=Architects Daughter;fontSource=https%3A%2F%2Ffonts.googleapis.com%2Fcss%3Ffamily%3DArchitects%2BDaughter;" vertex="1" connectable="0" parent="cTxEqYbv3ek-uvYbrTPT-30">
          <mxGeometry x="-0.1321" y="-2" relative="1" as="geometry">
            <mxPoint y="-1" as="offset" />
          </mxGeometry>
        </mxCell>
        <mxCell id="cTxEqYbv3ek-uvYbrTPT-34" style="edgeStyle=orthogonalEdgeStyle;rounded=0;hachureGap=4;orthogonalLoop=1;jettySize=auto;html=1;exitX=1;exitY=0.5;exitDx=0;exitDy=0;entryX=0;entryY=0.5;entryDx=0;entryDy=0;fontFamily=Architects Daughter;fontSource=https%3A%2F%2Ffonts.googleapis.com%2Fcss%3Ffamily%3DArchitects%2BDaughter;strokeColor=#FFFFFF;" edge="1" parent="1" source="cTxEqYbv3ek-uvYbrTPT-18" target="cTxEqYbv3ek-uvYbrTPT-33">
          <mxGeometry relative="1" as="geometry" />
        </mxCell>
        <mxCell id="cTxEqYbv3ek-uvYbrTPT-35" value="&lt;font face=&quot;Helvetica&quot;&gt;i != source&lt;/font&gt;" style="edgeLabel;html=1;align=center;verticalAlign=middle;resizable=0;points=[];hachureGap=4;fontFamily=Architects Daughter;fontSource=https%3A%2F%2Ffonts.googleapis.com%2Fcss%3Ffamily%3DArchitects%2BDaughter;" vertex="1" connectable="0" parent="cTxEqYbv3ek-uvYbrTPT-34">
          <mxGeometry x="-0.1529" y="-2" relative="1" as="geometry">
            <mxPoint x="-1" as="offset" />
          </mxGeometry>
        </mxCell>
        <mxCell id="cTxEqYbv3ek-uvYbrTPT-18" value="&lt;font color=&quot;#ffffff&quot;&gt;NULL&lt;br&gt;&lt;/font&gt;" style="rounded=0;whiteSpace=wrap;html=1;fillColor=#000000;strokeColor=#FFFFFF;" vertex="1" parent="1">
          <mxGeometry x="250" y="510" width="120" height="60" as="geometry" />
        </mxCell>
        <mxCell id="cTxEqYbv3ek-uvYbrTPT-42" style="edgeStyle=orthogonalEdgeStyle;rounded=0;hachureGap=4;orthogonalLoop=1;jettySize=auto;html=1;exitX=0.5;exitY=1;exitDx=0;exitDy=0;entryX=0.5;entryY=0;entryDx=0;entryDy=0;fontFamily=Architects Daughter;fontSource=https%3A%2F%2Ffonts.googleapis.com%2Fcss%3Ffamily%3DArchitects%2BDaughter;strokeColor=#FFFFFF;" edge="1" parent="1" source="cTxEqYbv3ek-uvYbrTPT-22" target="cTxEqYbv3ek-uvYbrTPT-41">
          <mxGeometry relative="1" as="geometry" />
        </mxCell>
        <mxCell id="cTxEqYbv3ek-uvYbrTPT-43" value="&lt;font face=&quot;Helvetica&quot;&gt;!priorityQueue.isEmpty()&lt;/font&gt;" style="edgeLabel;html=1;align=center;verticalAlign=middle;resizable=0;points=[];hachureGap=4;fontFamily=Architects Daughter;fontSource=https%3A%2F%2Ffonts.googleapis.com%2Fcss%3Ffamily%3DArchitects%2BDaughter;" vertex="1" connectable="0" parent="cTxEqYbv3ek-uvYbrTPT-42">
          <mxGeometry x="0.1722" y="-2" relative="1" as="geometry">
            <mxPoint as="offset" />
          </mxGeometry>
        </mxCell>
        <mxCell id="cTxEqYbv3ek-uvYbrTPT-59" style="edgeStyle=orthogonalEdgeStyle;rounded=0;hachureGap=4;orthogonalLoop=1;jettySize=auto;html=1;entryX=0.5;entryY=1;entryDx=0;entryDy=0;fontFamily=Architects Daughter;fontSource=https%3A%2F%2Ffonts.googleapis.com%2Fcss%3Ffamily%3DArchitects%2BDaughter;strokeColor=#FFFFFF;" edge="1" parent="1" source="cTxEqYbv3ek-uvYbrTPT-22" target="cTxEqYbv3ek-uvYbrTPT-58">
          <mxGeometry relative="1" as="geometry" />
        </mxCell>
        <mxCell id="cTxEqYbv3ek-uvYbrTPT-62" value="&lt;font face=&quot;Helvetica&quot;&gt;True&lt;/font&gt;" style="edgeLabel;html=1;align=center;verticalAlign=middle;resizable=0;points=[];hachureGap=4;fontFamily=Architects Daughter;fontSource=https%3A%2F%2Ffonts.googleapis.com%2Fcss%3Ffamily%3DArchitects%2BDaughter;" vertex="1" connectable="0" parent="cTxEqYbv3ek-uvYbrTPT-59">
          <mxGeometry x="-0.0418" y="1" relative="1" as="geometry">
            <mxPoint y="1" as="offset" />
          </mxGeometry>
        </mxCell>
        <mxCell id="cTxEqYbv3ek-uvYbrTPT-22" value="&lt;font color=&quot;#ffffff&quot;&gt;NULL&lt;br&gt;&lt;/font&gt;" style="rounded=0;whiteSpace=wrap;html=1;fillColor=#000000;strokeColor=#FFFFFF;" vertex="1" parent="1">
          <mxGeometry x="810" y="370" width="120" height="60" as="geometry" />
        </mxCell>
        <mxCell id="cTxEqYbv3ek-uvYbrTPT-36" style="edgeStyle=orthogonalEdgeStyle;rounded=0;hachureGap=4;orthogonalLoop=1;jettySize=auto;html=1;entryX=0.5;entryY=1;entryDx=0;entryDy=0;fontFamily=Architects Daughter;fontSource=https%3A%2F%2Ffonts.googleapis.com%2Fcss%3Ffamily%3DArchitects%2BDaughter;strokeColor=#FFFFFF;" edge="1" parent="1" source="cTxEqYbv3ek-uvYbrTPT-27" target="cTxEqYbv3ek-uvYbrTPT-33">
          <mxGeometry relative="1" as="geometry" />
        </mxCell>
        <mxCell id="cTxEqYbv3ek-uvYbrTPT-37" value="&lt;font face=&quot;Helvetica&quot;&gt;True&lt;/font&gt;" style="edgeLabel;html=1;align=center;verticalAlign=middle;resizable=0;points=[];hachureGap=4;fontFamily=Architects Daughter;fontSource=https%3A%2F%2Ffonts.googleapis.com%2Fcss%3Ffamily%3DArchitects%2BDaughter;" vertex="1" connectable="0" parent="cTxEqYbv3ek-uvYbrTPT-36">
          <mxGeometry x="-0.4444" y="2" relative="1" as="geometry">
            <mxPoint x="-1" as="offset" />
          </mxGeometry>
        </mxCell>
        <mxCell id="cTxEqYbv3ek-uvYbrTPT-27" value="&lt;font color=&quot;#ffffff&quot;&gt;vertices[i].distance = 0&lt;br&gt;&lt;/font&gt;" style="rounded=0;whiteSpace=wrap;html=1;fillColor=#000000;strokeColor=#FFFFFF;" vertex="1" parent="1">
          <mxGeometry x="235" y="710" width="150" height="60" as="geometry" />
        </mxCell>
        <mxCell id="cTxEqYbv3ek-uvYbrTPT-38" style="edgeStyle=orthogonalEdgeStyle;rounded=0;hachureGap=4;orthogonalLoop=1;jettySize=auto;html=1;entryX=0.5;entryY=1;entryDx=0;entryDy=0;fontFamily=Architects Daughter;fontSource=https%3A%2F%2Ffonts.googleapis.com%2Fcss%3Ffamily%3DArchitects%2BDaughter;strokeColor=#FFFFFF;" edge="1" parent="1" source="cTxEqYbv3ek-uvYbrTPT-33" target="cTxEqYbv3ek-uvYbrTPT-8">
          <mxGeometry relative="1" as="geometry" />
        </mxCell>
        <mxCell id="cTxEqYbv3ek-uvYbrTPT-39" value="&lt;font face=&quot;Helvetica&quot;&gt;True&lt;/font&gt;" style="edgeLabel;html=1;align=center;verticalAlign=middle;resizable=0;points=[];hachureGap=4;fontFamily=Architects Daughter;fontSource=https%3A%2F%2Ffonts.googleapis.com%2Fcss%3Ffamily%3DArchitects%2BDaughter;" vertex="1" connectable="0" parent="cTxEqYbv3ek-uvYbrTPT-38">
          <mxGeometry x="0.2" y="-1" relative="1" as="geometry">
            <mxPoint as="offset" />
          </mxGeometry>
        </mxCell>
        <mxCell id="cTxEqYbv3ek-uvYbrTPT-33" value="&lt;font color=&quot;#ffffff&quot;&gt;priorityQueue.add(vertices[i])&lt;br&gt;&lt;/font&gt;&lt;div&gt;&lt;font color=&quot;#ffffff&quot;&gt;i++;&lt;/font&gt;&lt;/div&gt;" style="rounded=0;whiteSpace=wrap;html=1;fillColor=#000000;strokeColor=#FFFFFF;" vertex="1" parent="1">
          <mxGeometry x="490" y="560" width="190" height="60" as="geometry" />
        </mxCell>
        <mxCell id="cTxEqYbv3ek-uvYbrTPT-46" style="edgeStyle=orthogonalEdgeStyle;rounded=0;hachureGap=4;orthogonalLoop=1;jettySize=auto;html=1;entryX=0.5;entryY=0;entryDx=0;entryDy=0;fontFamily=Architects Daughter;fontSource=https%3A%2F%2Ffonts.googleapis.com%2Fcss%3Ffamily%3DArchitects%2BDaughter;strokeColor=#FFFFFF;" edge="1" parent="1" source="cTxEqYbv3ek-uvYbrTPT-41" target="cTxEqYbv3ek-uvYbrTPT-45">
          <mxGeometry relative="1" as="geometry" />
        </mxCell>
        <mxCell id="cTxEqYbv3ek-uvYbrTPT-47" value="&lt;font face=&quot;Helvetica&quot;&gt;True&lt;/font&gt;" style="edgeLabel;html=1;align=center;verticalAlign=middle;resizable=0;points=[];hachureGap=4;fontFamily=Architects Daughter;fontSource=https%3A%2F%2Ffonts.googleapis.com%2Fcss%3Ffamily%3DArchitects%2BDaughter;" vertex="1" connectable="0" parent="cTxEqYbv3ek-uvYbrTPT-46">
          <mxGeometry x="-0.1983" y="-3" relative="1" as="geometry">
            <mxPoint as="offset" />
          </mxGeometry>
        </mxCell>
        <mxCell id="cTxEqYbv3ek-uvYbrTPT-41" value="&lt;font color=&quot;#ffffff&quot;&gt;currentVertex = priorityQueue.poll();&lt;/font&gt;&lt;div&gt;&lt;font color=&quot;#ffffff&quot;&gt;visited[currentVertex.id] = true;&lt;br&gt;edges = graph.getEdges(currentVertex.id);&lt;/font&gt;&lt;/div&gt;" style="rounded=0;whiteSpace=wrap;html=1;fillColor=#000000;strokeColor=#FFFFFF;" vertex="1" parent="1">
          <mxGeometry x="748" y="530" width="244" height="60" as="geometry" />
        </mxCell>
        <mxCell id="cTxEqYbv3ek-uvYbrTPT-49" style="edgeStyle=orthogonalEdgeStyle;rounded=0;hachureGap=4;orthogonalLoop=1;jettySize=auto;html=1;entryX=0.5;entryY=0;entryDx=0;entryDy=0;fontFamily=Architects Daughter;fontSource=https%3A%2F%2Ffonts.googleapis.com%2Fcss%3Ffamily%3DArchitects%2BDaughter;strokeColor=#FFFFFF;" edge="1" parent="1" source="cTxEqYbv3ek-uvYbrTPT-45" target="cTxEqYbv3ek-uvYbrTPT-48">
          <mxGeometry relative="1" as="geometry" />
        </mxCell>
        <mxCell id="cTxEqYbv3ek-uvYbrTPT-50" value="&lt;font face=&quot;Helvetica&quot;&gt;edge in edges&lt;/font&gt;" style="edgeLabel;html=1;align=center;verticalAlign=middle;resizable=0;points=[];hachureGap=4;fontFamily=Architects Daughter;fontSource=https%3A%2F%2Ffonts.googleapis.com%2Fcss%3Ffamily%3DArchitects%2BDaughter;" vertex="1" connectable="0" parent="cTxEqYbv3ek-uvYbrTPT-49">
          <mxGeometry x="-0.0514" y="-4" relative="1" as="geometry">
            <mxPoint as="offset" />
          </mxGeometry>
        </mxCell>
        <mxCell id="cTxEqYbv3ek-uvYbrTPT-52" style="edgeStyle=orthogonalEdgeStyle;rounded=0;hachureGap=4;orthogonalLoop=1;jettySize=auto;html=1;entryX=1;entryY=0.5;entryDx=0;entryDy=0;fontFamily=Architects Daughter;fontSource=https%3A%2F%2Ffonts.googleapis.com%2Fcss%3Ffamily%3DArchitects%2BDaughter;strokeColor=#FFFFFF;" edge="1" parent="1" source="cTxEqYbv3ek-uvYbrTPT-45" target="cTxEqYbv3ek-uvYbrTPT-22">
          <mxGeometry relative="1" as="geometry">
            <mxPoint x="1000" y="780.0000000000002" as="targetPoint" />
            <Array as="points">
              <mxPoint x="1020" y="685.0000000000002" />
              <mxPoint x="1020" y="400" />
            </Array>
          </mxGeometry>
        </mxCell>
        <mxCell id="cTxEqYbv3ek-uvYbrTPT-55" value="&lt;span style=&quot;font-family: Helvetica;&quot;&gt;edge not in edges&lt;/span&gt;" style="edgeLabel;html=1;align=center;verticalAlign=middle;resizable=0;points=[];hachureGap=4;fontFamily=Architects Daughter;fontSource=https%3A%2F%2Ffonts.googleapis.com%2Fcss%3Ffamily%3DArchitects%2BDaughter;" vertex="1" connectable="0" parent="cTxEqYbv3ek-uvYbrTPT-52">
          <mxGeometry x="-0.2548" relative="1" as="geometry">
            <mxPoint as="offset" />
          </mxGeometry>
        </mxCell>
        <mxCell id="cTxEqYbv3ek-uvYbrTPT-45" value="&lt;font color=&quot;#ffffff&quot;&gt;NULL&lt;/font&gt;" style="rounded=0;whiteSpace=wrap;html=1;fillColor=#000000;strokeColor=#FFFFFF;" vertex="1" parent="1">
          <mxGeometry x="810" y="650" width="120" height="70" as="geometry" />
        </mxCell>
        <mxCell id="cTxEqYbv3ek-uvYbrTPT-69" style="edgeStyle=orthogonalEdgeStyle;rounded=0;hachureGap=4;orthogonalLoop=1;jettySize=auto;html=1;fontFamily=Architects Daughter;fontSource=https%3A%2F%2Ffonts.googleapis.com%2Fcss%3Ffamily%3DArchitects%2BDaughter;entryX=0;entryY=0.5;entryDx=0;entryDy=0;strokeColor=#FFFFFF;" edge="1" parent="1" source="cTxEqYbv3ek-uvYbrTPT-48" target="cTxEqYbv3ek-uvYbrTPT-67">
          <mxGeometry relative="1" as="geometry">
            <mxPoint x="770" y="825" as="targetPoint" />
          </mxGeometry>
        </mxCell>
        <mxCell id="cTxEqYbv3ek-uvYbrTPT-70" value="&lt;font face=&quot;Helvetica&quot;&gt;! (visited[edge.destination]&lt;/font&gt;" style="edgeLabel;html=1;align=center;verticalAlign=middle;resizable=0;points=[];hachureGap=4;fontFamily=Architects Daughter;fontSource=https%3A%2F%2Ffonts.googleapis.com%2Fcss%3Ffamily%3DArchitects%2BDaughter;" vertex="1" connectable="0" parent="cTxEqYbv3ek-uvYbrTPT-69">
          <mxGeometry x="-0.3396" y="1" relative="1" as="geometry">
            <mxPoint x="18" y="1" as="offset" />
          </mxGeometry>
        </mxCell>
        <mxCell id="cTxEqYbv3ek-uvYbrTPT-72" style="edgeStyle=orthogonalEdgeStyle;rounded=0;hachureGap=4;orthogonalLoop=1;jettySize=auto;html=1;entryX=0.5;entryY=0;entryDx=0;entryDy=0;fontFamily=Architects Daughter;fontSource=https%3A%2F%2Ffonts.googleapis.com%2Fcss%3Ffamily%3DArchitects%2BDaughter;strokeColor=#FFFFFF;" edge="1" parent="1" source="cTxEqYbv3ek-uvYbrTPT-48" target="cTxEqYbv3ek-uvYbrTPT-45">
          <mxGeometry relative="1" as="geometry">
            <Array as="points">
              <mxPoint x="620" y="825" />
              <mxPoint x="620" y="630" />
              <mxPoint x="870" y="630" />
            </Array>
          </mxGeometry>
        </mxCell>
        <mxCell id="cTxEqYbv3ek-uvYbrTPT-75" value="&lt;font face=&quot;Helvetica&quot;&gt;visited[edge.destination]&lt;/font&gt;" style="edgeLabel;html=1;align=center;verticalAlign=middle;resizable=0;points=[];hachureGap=4;fontFamily=Architects Daughter;fontSource=https%3A%2F%2Ffonts.googleapis.com%2Fcss%3Ffamily%3DArchitects%2BDaughter;" vertex="1" connectable="0" parent="cTxEqYbv3ek-uvYbrTPT-72">
          <mxGeometry x="-0.6119" y="2" relative="1" as="geometry">
            <mxPoint as="offset" />
          </mxGeometry>
        </mxCell>
        <mxCell id="cTxEqYbv3ek-uvYbrTPT-48" value="&lt;font color=&quot;#ffffff&quot;&gt;NULL&lt;/font&gt;" style="rounded=0;whiteSpace=wrap;html=1;fillColor=#000000;strokeColor=#FFFFFF;" vertex="1" parent="1">
          <mxGeometry x="660" y="792" width="120" height="70" as="geometry" />
        </mxCell>
        <mxCell id="cTxEqYbv3ek-uvYbrTPT-64" style="edgeStyle=orthogonalEdgeStyle;rounded=0;hachureGap=4;orthogonalLoop=1;jettySize=auto;html=1;entryX=0;entryY=0.5;entryDx=0;entryDy=0;fontFamily=Architects Daughter;fontSource=https%3A%2F%2Ffonts.googleapis.com%2Fcss%3Ffamily%3DArchitects%2BDaughter;strokeColor=#FFFFFF;" edge="1" parent="1" source="cTxEqYbv3ek-uvYbrTPT-58" target="cTxEqYbv3ek-uvYbrTPT-63">
          <mxGeometry relative="1" as="geometry" />
        </mxCell>
        <mxCell id="cTxEqYbv3ek-uvYbrTPT-65" value="&lt;font face=&quot;Helvetica&quot;&gt;True&lt;/font&gt;" style="edgeLabel;html=1;align=center;verticalAlign=middle;resizable=0;points=[];hachureGap=4;fontFamily=Architects Daughter;fontSource=https%3A%2F%2Ffonts.googleapis.com%2Fcss%3Ffamily%3DArchitects%2BDaughter;" vertex="1" connectable="0" parent="cTxEqYbv3ek-uvYbrTPT-64">
          <mxGeometry x="-0.2192" y="-6" relative="1" as="geometry">
            <mxPoint as="offset" />
          </mxGeometry>
        </mxCell>
        <mxCell id="cTxEqYbv3ek-uvYbrTPT-58" value="&lt;span style=&quot;color: rgb(255, 255, 255);&quot;&gt;distance = distancesV(vertices);&lt;/span&gt;&lt;font color=&quot;#ffffff&quot;&gt;&lt;br&gt;&lt;/font&gt;" style="rounded=0;whiteSpace=wrap;html=1;fillColor=#000000;strokeColor=#FFFFFF;" vertex="1" parent="1">
          <mxGeometry x="810" y="170" width="120" height="60" as="geometry" />
        </mxCell>
        <mxCell id="cTxEqYbv3ek-uvYbrTPT-63" value="&lt;span style=&quot;color: rgb(255, 255, 255);&quot;&gt;return distance;&lt;/span&gt;&lt;font color=&quot;#ffffff&quot;&gt;&lt;br&gt;&lt;/font&gt;" style="rounded=0;whiteSpace=wrap;html=1;fillColor=#000000;strokeColor=#FFFFFF;" vertex="1" parent="1">
          <mxGeometry x="1010" y="170" width="120" height="60" as="geometry" />
        </mxCell>
        <mxCell id="cTxEqYbv3ek-uvYbrTPT-78" style="edgeStyle=orthogonalEdgeStyle;rounded=0;hachureGap=4;orthogonalLoop=1;jettySize=auto;html=1;exitX=0.5;exitY=1;exitDx=0;exitDy=0;entryX=1;entryY=0.5;entryDx=0;entryDy=0;fontFamily=Architects Daughter;fontSource=https%3A%2F%2Ffonts.googleapis.com%2Fcss%3Ffamily%3DArchitects%2BDaughter;strokeColor=#FFFFFF;" edge="1" parent="1" source="cTxEqYbv3ek-uvYbrTPT-67" target="cTxEqYbv3ek-uvYbrTPT-77">
          <mxGeometry relative="1" as="geometry" />
        </mxCell>
        <mxCell id="cTxEqYbv3ek-uvYbrTPT-79" value="&lt;font face=&quot;Helvetica&quot;&gt;True&lt;/font&gt;" style="edgeLabel;html=1;align=center;verticalAlign=middle;resizable=0;points=[];hachureGap=4;fontFamily=Architects Daughter;fontSource=https%3A%2F%2Ffonts.googleapis.com%2Fcss%3Ffamily%3DArchitects%2BDaughter;" vertex="1" connectable="0" parent="cTxEqYbv3ek-uvYbrTPT-78">
          <mxGeometry x="0.1493" y="-1" relative="1" as="geometry">
            <mxPoint as="offset" />
          </mxGeometry>
        </mxCell>
        <mxCell id="cTxEqYbv3ek-uvYbrTPT-67" value="&lt;font color=&quot;#ffffff&quot;&gt;newDistance = currentVertex.distance + edge.weight&lt;/font&gt;" style="rounded=0;whiteSpace=wrap;html=1;fillColor=#000000;strokeColor=#FFFFFF;" vertex="1" parent="1">
          <mxGeometry x="930" y="792" width="190" height="70" as="geometry" />
        </mxCell>
        <mxCell id="cTxEqYbv3ek-uvYbrTPT-81" style="edgeStyle=orthogonalEdgeStyle;rounded=0;hachureGap=4;orthogonalLoop=1;jettySize=auto;html=1;exitX=0.5;exitY=1;exitDx=0;exitDy=0;entryX=0.5;entryY=0;entryDx=0;entryDy=0;fontFamily=Architects Daughter;fontSource=https%3A%2F%2Ffonts.googleapis.com%2Fcss%3Ffamily%3DArchitects%2BDaughter;strokeColor=#FFFFFF;" edge="1" parent="1" source="cTxEqYbv3ek-uvYbrTPT-77" target="cTxEqYbv3ek-uvYbrTPT-84">
          <mxGeometry relative="1" as="geometry">
            <mxPoint x="790" y="1090" as="targetPoint" />
          </mxGeometry>
        </mxCell>
        <mxCell id="cTxEqYbv3ek-uvYbrTPT-82" value="&lt;font face=&quot;Helvetica&quot;&gt;newDistance &amp;lt; vertices[edge.destination].distance&lt;/font&gt;" style="edgeLabel;html=1;align=center;verticalAlign=middle;resizable=0;points=[];hachureGap=4;fontFamily=Architects Daughter;fontSource=https%3A%2F%2Ffonts.googleapis.com%2Fcss%3Ffamily%3DArchitects%2BDaughter;" vertex="1" connectable="0" parent="cTxEqYbv3ek-uvYbrTPT-81">
          <mxGeometry x="-0.12" y="-2" relative="1" as="geometry">
            <mxPoint as="offset" />
          </mxGeometry>
        </mxCell>
        <mxCell id="cTxEqYbv3ek-uvYbrTPT-85" style="edgeStyle=orthogonalEdgeStyle;rounded=0;hachureGap=4;orthogonalLoop=1;jettySize=auto;html=1;exitX=0;exitY=0.5;exitDx=0;exitDy=0;entryX=0.5;entryY=0;entryDx=0;entryDy=0;fontFamily=Architects Daughter;fontSource=https%3A%2F%2Ffonts.googleapis.com%2Fcss%3Ffamily%3DArchitects%2BDaughter;strokeColor=#FFFFFF;" edge="1" parent="1" source="cTxEqYbv3ek-uvYbrTPT-77" target="cTxEqYbv3ek-uvYbrTPT-45">
          <mxGeometry relative="1" as="geometry">
            <Array as="points">
              <mxPoint x="620" y="955" />
              <mxPoint x="620" y="630" />
              <mxPoint x="870" y="630" />
            </Array>
          </mxGeometry>
        </mxCell>
        <mxCell id="cTxEqYbv3ek-uvYbrTPT-86" value="&lt;span style=&quot;font-family: Helvetica;&quot;&gt;!(newDistance &amp;lt; vertices[edge.destination].distance)&lt;/span&gt;" style="edgeLabel;html=1;align=center;verticalAlign=middle;resizable=0;points=[];hachureGap=4;fontFamily=Architects Daughter;fontSource=https%3A%2F%2Ffonts.googleapis.com%2Fcss%3Ffamily%3DArchitects%2BDaughter;" vertex="1" connectable="0" parent="cTxEqYbv3ek-uvYbrTPT-85">
          <mxGeometry x="-0.4691" y="2" relative="1" as="geometry">
            <mxPoint as="offset" />
          </mxGeometry>
        </mxCell>
        <mxCell id="cTxEqYbv3ek-uvYbrTPT-77" value="&lt;font color=&quot;#ffffff&quot;&gt;NULL&lt;/font&gt;" style="rounded=0;whiteSpace=wrap;html=1;fillColor=#000000;strokeColor=#FFFFFF;" vertex="1" parent="1">
          <mxGeometry x="730" y="920" width="120" height="70" as="geometry" />
        </mxCell>
        <mxCell id="cTxEqYbv3ek-uvYbrTPT-84" value="&lt;font color=&quot;#ffffff&quot;&gt;priorityQueue.remove(vertices[edge.destination]);&lt;/font&gt;&lt;div&gt;&lt;font color=&quot;#ffffff&quot;&gt;vertices[edge.destination].distance = newDistance;&lt;/font&gt;&lt;/div&gt;&lt;div&gt;&lt;font color=&quot;#ffffff&quot;&gt;priorityQueue.add(vertices[edge.destination]);&lt;/font&gt;&lt;/div&gt;" style="rounded=0;whiteSpace=wrap;html=1;fillColor=#000000;strokeColor=#FFFFFF;" vertex="1" parent="1">
          <mxGeometry x="650" y="1070" width="280" height="70" as="geometry" />
        </mxCell>
        <mxCell id="cTxEqYbv3ek-uvYbrTPT-87" value="&lt;span style=&quot;background-color: rgb(255, 255, 255);&quot;&gt;&lt;font face=&quot;Helvetica&quot;&gt;&amp;nbsp;1&amp;nbsp;&lt;/font&gt;&lt;/span&gt;" style="text;html=1;align=center;verticalAlign=middle;resizable=0;points=[];autosize=1;strokeColor=none;fillColor=none;fontFamily=Architects Daughter;fontSource=https%3A%2F%2Ffonts.googleapis.com%2Fcss%3Ffamily%3DArchitects%2BDaughter;" vertex="1" parent="1">
          <mxGeometry x="630" y="48" width="40" height="30" as="geometry" />
        </mxCell>
        <mxCell id="cTxEqYbv3ek-uvYbrTPT-88" value="&lt;span style=&quot;background-color: rgb(255, 255, 255);&quot;&gt;&lt;font face=&quot;Helvetica&quot;&gt;&amp;nbsp;2&amp;nbsp;&lt;/font&gt;&lt;/span&gt;" style="text;html=1;align=center;verticalAlign=middle;resizable=0;points=[];autosize=1;strokeColor=none;fillColor=none;fontFamily=Architects Daughter;fontSource=https%3A%2F%2Ffonts.googleapis.com%2Fcss%3Ffamily%3DArchitects%2BDaughter;" vertex="1" parent="1">
          <mxGeometry x="640" y="200" width="40" height="30" as="geometry" />
        </mxCell>
        <mxCell id="cTxEqYbv3ek-uvYbrTPT-89" value="&lt;span style=&quot;background-color: rgb(255, 255, 255);&quot;&gt;&lt;font face=&quot;Helvetica&quot;&gt;&amp;nbsp;3&amp;nbsp;&lt;/font&gt;&lt;/span&gt;" style="text;html=1;align=center;verticalAlign=middle;resizable=0;points=[];autosize=1;strokeColor=none;fillColor=none;fontFamily=Architects Daughter;fontSource=https%3A%2F%2Ffonts.googleapis.com%2Fcss%3Ffamily%3DArchitects%2BDaughter;" vertex="1" parent="1">
          <mxGeometry x="620" y="340" width="40" height="30" as="geometry" />
        </mxCell>
        <mxCell id="cTxEqYbv3ek-uvYbrTPT-90" value="&lt;span style=&quot;background-color: rgb(255, 255, 255);&quot;&gt;&lt;font face=&quot;Helvetica&quot;&gt;&amp;nbsp;4&amp;nbsp;&lt;/font&gt;&lt;/span&gt;" style="text;html=1;align=center;verticalAlign=middle;resizable=0;points=[];autosize=1;strokeColor=none;fillColor=none;fontFamily=Architects Daughter;fontSource=https%3A%2F%2Ffonts.googleapis.com%2Fcss%3Ffamily%3DArchitects%2BDaughter;" vertex="1" parent="1">
          <mxGeometry x="360" y="340" width="40" height="30" as="geometry" />
        </mxCell>
        <mxCell id="cTxEqYbv3ek-uvYbrTPT-91" value="&lt;span style=&quot;background-color: rgb(255, 255, 255);&quot;&gt;&lt;font face=&quot;Helvetica&quot;&gt;&amp;nbsp;5&amp;nbsp;&lt;/font&gt;&lt;/span&gt;" style="text;html=1;align=center;verticalAlign=middle;resizable=0;points=[];autosize=1;strokeColor=none;fillColor=none;fontFamily=Architects Daughter;fontSource=https%3A%2F%2Ffonts.googleapis.com%2Fcss%3Ffamily%3DArchitects%2BDaughter;" vertex="1" parent="1">
          <mxGeometry x="360" y="480" width="40" height="30" as="geometry" />
        </mxCell>
        <mxCell id="cTxEqYbv3ek-uvYbrTPT-92" value="&lt;span style=&quot;background-color: rgb(255, 255, 255);&quot;&gt;&lt;font face=&quot;Helvetica&quot;&gt;&amp;nbsp;6&amp;nbsp;&lt;/font&gt;&lt;/span&gt;" style="text;html=1;align=center;verticalAlign=middle;resizable=0;points=[];autosize=1;strokeColor=none;fillColor=none;fontFamily=Architects Daughter;fontSource=https%3A%2F%2Ffonts.googleapis.com%2Fcss%3Ffamily%3DArchitects%2BDaughter;" vertex="1" parent="1">
          <mxGeometry x="360" y="680" width="40" height="30" as="geometry" />
        </mxCell>
        <mxCell id="cTxEqYbv3ek-uvYbrTPT-93" value="&lt;span style=&quot;background-color: rgb(255, 255, 255);&quot;&gt;&lt;font face=&quot;Helvetica&quot;&gt;&amp;nbsp;7&amp;nbsp;&lt;/font&gt;&lt;/span&gt;" style="text;html=1;align=center;verticalAlign=middle;resizable=0;points=[];autosize=1;strokeColor=none;fillColor=none;fontFamily=Architects Daughter;fontSource=https%3A%2F%2Ffonts.googleapis.com%2Fcss%3Ffamily%3DArchitects%2BDaughter;" vertex="1" parent="1">
          <mxGeometry x="640" y="530" width="40" height="30" as="geometry" />
        </mxCell>
        <mxCell id="cTxEqYbv3ek-uvYbrTPT-94" value="&lt;span style=&quot;background-color: rgb(255, 255, 255);&quot;&gt;&lt;font face=&quot;Helvetica&quot;&gt;&amp;nbsp;8&amp;nbsp;&lt;/font&gt;&lt;/span&gt;" style="text;html=1;align=center;verticalAlign=middle;resizable=0;points=[];autosize=1;strokeColor=none;fillColor=none;fontFamily=Architects Daughter;fontSource=https%3A%2F%2Ffonts.googleapis.com%2Fcss%3Ffamily%3DArchitects%2BDaughter;" vertex="1" parent="1">
          <mxGeometry x="920" y="350" width="40" height="30" as="geometry" />
        </mxCell>
        <mxCell id="cTxEqYbv3ek-uvYbrTPT-95" value="&lt;span style=&quot;background-color: rgb(255, 255, 255);&quot;&gt;&lt;font face=&quot;Helvetica&quot;&gt;&amp;nbsp;9&amp;nbsp;&lt;/font&gt;&lt;/span&gt;" style="text;html=1;align=center;verticalAlign=middle;resizable=0;points=[];autosize=1;strokeColor=none;fillColor=none;fontFamily=Architects Daughter;fontSource=https%3A%2F%2Ffonts.googleapis.com%2Fcss%3Ffamily%3DArchitects%2BDaughter;" vertex="1" parent="1">
          <mxGeometry x="952" y="500" width="40" height="30" as="geometry" />
        </mxCell>
        <mxCell id="cTxEqYbv3ek-uvYbrTPT-96" value="&lt;span style=&quot;background-color: rgb(255, 255, 255);&quot;&gt;&lt;font face=&quot;Helvetica&quot;&gt;&amp;nbsp;10&amp;nbsp;&lt;/font&gt;&lt;/span&gt;" style="text;html=1;align=center;verticalAlign=middle;resizable=0;points=[];autosize=1;strokeColor=none;fillColor=none;fontFamily=Architects Daughter;fontSource=https%3A%2F%2Ffonts.googleapis.com%2Fcss%3Ffamily%3DArchitects%2BDaughter;" vertex="1" parent="1">
          <mxGeometry x="912" y="620" width="40" height="30" as="geometry" />
        </mxCell>
        <mxCell id="cTxEqYbv3ek-uvYbrTPT-97" value="&lt;span style=&quot;background-color: rgb(255, 255, 255);&quot;&gt;&lt;font face=&quot;Helvetica&quot;&gt;&amp;nbsp;11&amp;nbsp;&lt;/font&gt;&lt;/span&gt;" style="text;html=1;align=center;verticalAlign=middle;resizable=0;points=[];autosize=1;strokeColor=none;fillColor=none;fontFamily=Architects Daughter;fontSource=https%3A%2F%2Ffonts.googleapis.com%2Fcss%3Ffamily%3DArchitects%2BDaughter;" vertex="1" parent="1">
          <mxGeometry x="770" y="770" width="40" height="30" as="geometry" />
        </mxCell>
        <mxCell id="cTxEqYbv3ek-uvYbrTPT-98" value="&lt;span style=&quot;background-color: rgb(255, 255, 255);&quot;&gt;&lt;font face=&quot;Helvetica&quot;&gt;&amp;nbsp;12&lt;/font&gt;&lt;/span&gt;&lt;span style=&quot;color: rgba(0, 0, 0, 0); font-family: monospace; font-size: 0px; text-align: start;&quot;&gt;%3CmxGraphModel%3E%3Croot%3E%3CmxCell%20id%3D%220%22%2F%3E%3CmxCell%20id%3D%221%22%20parent%3D%220%22%2F%3E%3CmxCell%20id%3D%222%22%20value%3D%22%26lt%3Bspan%20style%3D%26quot%3Bbackground-color%3A%20rgb(255%2C%20255%2C%20255)%3B%26quot%3B%26gt%3B%26lt%3Bfont%20face%3D%26quot%3BHelvetica%26quot%3B%26gt%3B%26amp%3Bnbsp%3B11%26amp%3Bnbsp%3B%26lt%3B%2Ffont%26gt%3B%26lt%3B%2Fspan%26gt%3B%22%20style%3D%22text%3Bhtml%3D1%3Balign%3Dcenter%3BverticalAlign%3Dmiddle%3Bresizable%3D0%3Bpoints%3D%5B%5D%3Bautosize%3D1%3BstrokeColor%3Dnone%3BfillColor%3Dnone%3BfontFamily%3DArchitects%20Daughter%3BfontSource%3Dhttps%253A%252F%252Ffonts.googleapis.com%252Fcss%253Ffamily%253DArchitects%252BDaughter%3B%22%20vertex%3D%221%22%20parent%3D%221%22%3E%3CmxGeometry%20x%3D%22770%22%20y%3D%22770%22%20width%3D%2240%22%20height%3D%2230%22%20as%3D%22geometry%22%2F%3E%3C%2FmxCell%3E%3C%2Froot%3E%3C%2FmxGraphModel%3E&lt;/span&gt;&lt;span style=&quot;background-color: rgb(255, 255, 255);&quot;&gt;&lt;font face=&quot;Helvetica&quot;&gt;&amp;nbsp;&lt;/font&gt;&lt;/span&gt;" style="text;html=1;align=center;verticalAlign=middle;resizable=0;points=[];autosize=1;strokeColor=none;fillColor=none;fontFamily=Architects Daughter;fontSource=https%3A%2F%2Ffonts.googleapis.com%2Fcss%3Ffamily%3DArchitects%2BDaughter;" vertex="1" parent="1">
          <mxGeometry x="1090" y="762" width="40" height="30" as="geometry" />
        </mxCell>
        <mxCell id="cTxEqYbv3ek-uvYbrTPT-99" value="&lt;span style=&quot;background-color: rgb(255, 255, 255);&quot;&gt;&lt;font face=&quot;Helvetica&quot;&gt;&amp;nbsp;13&amp;nbsp;&lt;/font&gt;&lt;/span&gt;" style="text;html=1;align=center;verticalAlign=middle;resizable=0;points=[];autosize=1;strokeColor=none;fillColor=none;fontFamily=Architects Daughter;fontSource=https%3A%2F%2Ffonts.googleapis.com%2Fcss%3Ffamily%3DArchitects%2BDaughter;" vertex="1" parent="1">
          <mxGeometry x="830" y="890" width="40" height="30" as="geometry" />
        </mxCell>
        <mxCell id="cTxEqYbv3ek-uvYbrTPT-100" value="&lt;span style=&quot;background-color: rgb(255, 255, 255);&quot;&gt;&lt;font face=&quot;Helvetica&quot;&gt;&amp;nbsp;14&amp;nbsp;&lt;/font&gt;&lt;/span&gt;" style="text;html=1;align=center;verticalAlign=middle;resizable=0;points=[];autosize=1;strokeColor=none;fillColor=none;fontFamily=Architects Daughter;fontSource=https%3A%2F%2Ffonts.googleapis.com%2Fcss%3Ffamily%3DArchitects%2BDaughter;" vertex="1" parent="1">
          <mxGeometry x="890" y="1040" width="40" height="30" as="geometry" />
        </mxCell>
        <mxCell id="cTxEqYbv3ek-uvYbrTPT-101" value="&lt;span style=&quot;background-color: rgb(255, 255, 255);&quot;&gt;&lt;font face=&quot;Helvetica&quot;&gt;&amp;nbsp;15&amp;nbsp;&lt;/font&gt;&lt;/span&gt;" style="text;html=1;align=center;verticalAlign=middle;resizable=0;points=[];autosize=1;strokeColor=none;fillColor=none;fontFamily=Architects Daughter;fontSource=https%3A%2F%2Ffonts.googleapis.com%2Fcss%3Ffamily%3DArchitects%2BDaughter;" vertex="1" parent="1">
          <mxGeometry x="891" y="140" width="40" height="30" as="geometry" />
        </mxCell>
        <mxCell id="cTxEqYbv3ek-uvYbrTPT-102" value="&lt;span style=&quot;background-color: rgb(255, 255, 255);&quot;&gt;&lt;font face=&quot;Helvetica&quot;&gt;&amp;nbsp;16&amp;nbsp;&lt;/font&gt;&lt;/span&gt;" style="text;html=1;align=center;verticalAlign=middle;resizable=0;points=[];autosize=1;strokeColor=none;fillColor=none;fontFamily=Architects Daughter;fontSource=https%3A%2F%2Ffonts.googleapis.com%2Fcss%3Ffamily%3DArchitects%2BDaughter;" vertex="1" parent="1">
          <mxGeometry x="1100" y="140" width="40" height="30" as="geometry" />
        </mxCell>
      </root>
    </mxGraphModel>
  </diagram>
</mxfile>
